<svg width="91" height="49" viewBox="0 0 91 49" fill="none" xmlns="http://www.w3.org/2000/svg">
<path d="M1.425 25V7.5H9.85C11.4833 7.5 12.8917 7.76667 14.075 8.3C15.275 8.83333 16.2 9.6 16.85 10.6C17.5 11.5833 17.825 12.75 17.825 14.1C17.825 15.45 17.5 16.6167 16.85 17.6C16.2 18.5667 15.275 19.3083 14.075 19.825C12.8917 20.3417 11.4833 20.6 9.85 20.6H4.7L7.325 18.175V25H1.425ZM11.9 25L7.6 18.625H13.85L18.2 25H11.9ZM7.325 18.825L4.7 16.15H9.475C10.2917 16.15 10.8917 15.9667 11.275 15.6C11.675 15.2333 11.875 14.7333 11.875 14.1C11.875 13.4667 11.675 12.9667 11.275 12.6C10.8917 12.2333 10.2917 12.05 9.475 12.05H4.7L7.325 9.375V18.825ZM22.9529 14H30.7529V18.25H22.9529V14ZM23.3529 20.55H32.1029V25H17.5529V7.5H31.7779V11.95H23.3529V20.55ZM29.9742 25L37.6242 7.5H43.4242L51.0742 25H44.9742L39.3242 10.3H41.6242L35.9742 25H29.9742ZM34.5242 21.95L36.0242 17.7H44.0742L45.5742 21.95H34.5242ZM49.5158 25V7.5H58.1408C60.0908 7.5 61.8075 7.85833 63.2908 8.575C64.7742 9.275 65.9325 10.275 66.7658 11.575C67.5992 12.875 68.0158 14.425 68.0158 16.225C68.0158 18.0417 67.5992 19.6083 66.7658 20.925C65.9325 22.225 64.7742 23.2333 63.2908 23.95C61.8075 24.65 60.0908 25 58.1408 25H49.5158ZM55.4158 20.4H57.8908C58.7242 20.4 59.4492 20.2417 60.0658 19.925C60.6992 19.6083 61.1908 19.1417 61.5408 18.525C61.8908 17.8917 62.0658 17.125 62.0658 16.225C62.0658 15.3417 61.8908 14.5917 61.5408 13.975C61.1908 13.3583 60.6992 12.8917 60.0658 12.575C59.4492 12.2583 58.7242 12.1 57.8908 12.1H55.4158V20.4Z" fill="white"/>
<path d="M79.2139 6.06966L79.1695 13.7445L77.8399 10.2118L85.7126 23.6075L79.4877 23.5715L74.1655 14.4156L77.7905 14.4366L72.3128 23.53L66.6129 23.4971L74.59 10.193L73.2696 13.7104L73.314 6.03554L79.2139 6.06966Z" fill="white"/>
<path d="M8.95 43.4C6.025 43.4 3.075 42.675 1.325 41.6L3.225 37.3C4.875 38.275 7.075 38.9 9 38.9C10.675 38.9 11.275 38.55 11.275 37.95C11.275 35.75 1.6 37.525 1.6 31C1.6 27.75 4.325 25.1 9.75 25.1C12.1 25.1 14.525 25.6 16.35 26.625L14.575 30.9C12.85 30.025 11.225 29.6 9.7 29.6C7.975 29.6 7.425 30.1 7.425 30.7C7.425 32.8 17.1 31.05 17.1 37.5C17.1 40.7 14.375 43.4 8.95 43.4ZM22.1557 36.25V38.55H30.9057V43H16.3557V25.5H30.5807V29.95H22.1557V32H29.5557V36.25H22.1557ZM49.877 43H43.777L42.602 39.95H35.952L34.777 43H28.777L36.427 25.5H42.227L49.877 43ZM39.277 31.3L37.577 35.7H40.977L39.277 31.3ZM57.1396 43H51.2396V30.075H46.1146V25.5H62.2646V30.075H57.1396V43Z" fill="#23ABE6"/>
<path d="M66 38.2V33.775H71.125V41.175C69 42.625 66.075 43.4 63.5 43.4C57.85 43.4 53.725 39.625 53.725 34.25C53.725 28.875 57.85 25.1 63.625 25.1C67.075 25.1 69.85 26.3 71.625 28.475L67.85 31.8C66.75 30.525 65.475 29.875 63.925 29.875C61.325 29.875 59.675 31.55 59.675 34.25C59.675 36.875 61.325 38.625 63.85 38.625C64.575 38.625 65.275 38.5 66 38.2Z" fill="#23ABE6"/>
<path d="M80.3139 43.4C74.6139 43.4 70.4389 39.55 70.4389 34.25C70.4389 28.95 74.6139 25.1 80.3139 25.1C86.0139 25.1 90.1889 28.95 90.1889 34.25C90.1889 39.55 86.0139 43.4 80.3139 43.4ZM80.3139 38.625C82.4889 38.625 84.2389 36.975 84.2389 34.25C84.2389 31.525 82.4889 29.875 80.3139 29.875C78.1389 29.875 76.3889 31.525 76.3889 34.25C76.3889 36.975 78.1389 38.625 80.3139 38.625Z" fill="white"/>
</svg>
