<svg width="557" height="142" viewBox="0 0 557 142" fill="none" xmlns="http://www.w3.org/2000/svg">
<path d="M277.8 86.2C269.5 86.2 260.7 83.4 254.5 78.4L260.8 68.3C265.4 71.6 271.2 74.1 278.1 74.1C282 74.1 284.8 72.5 284.8 70.2C284.8 67 281 66 275.7 64.6C265.1 62 256.9 59.1 256.8 48.9C256.7 39.1 264.8 32.1 277 32.1C284.4 32.1 291.7 34.7 297.4 38.5L291.5 48.9C286.8 46 281.4 44.3 277 44.3C273.4 44.3 270.9 45.6 270.9 47.4C270.9 50.2 273 51 280 52.9C288.9 55.2 298.8 58.2 298.8 69.5C298.8 79.7 290.5 86.2 277.8 86.2ZM327.995 73.3C332.095 73.3 337.095 71.4 339.895 68.7L349.195 78.2C344.595 83 335.695 86.2 328.095 86.2C312.695 86.2 300.695 74.9 300.695 59C300.695 43.4 312.195 32.1 327.295 32.1C343.495 32.1 352.995 44.4 352.995 63.9H315.695C317.395 69.5 321.895 73.3 327.995 73.3ZM327.895 45C322.395 45 317.795 48.2 315.895 53.4H338.995C337.595 48.3 333.795 45 327.895 45ZM380.973 32.1C394.473 32.1 403.673 40.6 403.673 54.1V85H389.573V79.8C385.873 84 379.973 86.2 374.373 86.2C363.373 86.2 354.873 79.6 354.873 69.7C354.873 59.5 364.373 52.5 376.373 52.5C380.573 52.5 385.173 53.4 389.573 55.1V54.1C389.573 48.6 386.173 43.8 377.673 43.8C372.873 43.8 368.373 45.4 364.273 47.5L359.373 37.8C366.673 34.1 373.773 32.1 380.973 32.1ZM377.673 76.1C383.273 76.1 388.573 73.5 389.573 68.7V63.9C386.273 62.7 382.473 62 378.473 62C373.173 62 368.973 65.1 368.973 69.3C368.973 73.5 372.673 76.1 377.673 76.1ZM438.178 72.2L441.678 81.7C438.678 84.4 433.978 86.2 429.778 86.2C420.678 86.2 414.278 79.7 414.278 70.4V45.1H407.178V33.3H414.278V19.1H428.278V33.3H439.478V45.1H428.278V68.1C428.278 71.5 430.478 73.9 433.178 73.9C435.178 73.9 437.178 73.2 438.178 72.2Z" fill="#23ABE6"/>
<path d="M463.8 36.3H478.5V82.5C478.5 95.8 467 105.2 450.7 105.2C441.6 105.2 433 102.3 427.9 98.3L433 88C436.4 91 442.4 92.9 448.4 92.9C457.8 92.9 463.8 88.6 463.8 81.9V76.2C459.7 81.2 453.5 84.2 446.7 84.2C433.7 84.2 423.8 74 423.8 59.6C423.8 45.2 433.7 35.1 446.7 35.1C453.7 35.1 460.3 38.4 463.8 43.3V36.3ZM451.3 71.9C458.6 71.9 463.8 66.8 463.8 59.6C463.8 52.4 458.6 47.4 451.3 47.4C444 47.4 438.8 52.4 438.8 59.6C438.8 66.8 444 71.9 451.3 71.9Z" fill="white"/>
<path d="M511.741 89.2C496.341 89.2 483.441 76.8 483.441 62.1C483.441 47.4 496.341 35.1 511.741 35.1C527.041 35.1 539.841 47.4 539.841 62.1C539.841 76.8 527.041 89.2 511.741 89.2ZM511.741 76.9C519.441 76.9 525.941 70.1 525.941 62.1C525.941 54.1 519.441 47.4 511.741 47.4C503.941 47.4 497.441 54.1 497.441 62.1C497.441 70.1 503.941 76.9 511.741 76.9Z" fill="#23ABE6"/>
<path d="M21 41.9C24.4 35.2 30.8 31.1 38.7 31.1V43.4C27.9 43.4 21 49.6 21 59.3V84H6.4V32.3H21V41.9Z" fill="#23ABE6"/>
<path d="M66.5227 72.3C70.6227 72.3 75.6227 70.4 78.4227 67.7L87.7227 77.2C83.1227 82 74.2227 85.2 66.6227 85.2C51.2227 85.2 39.2227 73.9 39.2227 58C39.2227 42.4 50.7227 31.1 65.8227 31.1C82.0227 31.1 91.5227 43.4 91.5227 62.9H54.2227C55.9227 68.5 60.4227 72.3 66.5227 72.3ZM66.4227 44C60.9227 44 56.3227 47.2 54.4227 52.4H77.5227C76.1227 47.3 72.3227 44 66.4227 44ZM119.5 31.1C133 31.1 142.2 39.6 142.2 53.1V84H128.1V78.8C124.4 83 118.5 85.2 112.9 85.2C101.9 85.2 93.4 78.6 93.4 68.7C93.4 58.5 102.9 51.5 114.9 51.5C119.1 51.5 123.7 52.4 128.1 54.1V53.1C128.1 47.6 124.7 42.8 116.2 42.8C111.4 42.8 106.9 44.4 102.8 46.5L97.9 36.8C105.2 33.1 112.3 31.1 119.5 31.1ZM116.2 75.1C121.8 75.1 127.1 72.5 128.1 67.7V62.9C124.8 61.7 121 61 117 61C111.7 61 107.5 64.1 107.5 68.3C107.5 72.5 111.2 75.1 116.2 75.1ZM188.105 14.1H202.705V84H188.105V76.6C184.005 82 178.005 85.2 170.705 85.2C156.905 85.2 146.905 74 146.905 58.1C146.905 42.3 156.905 31.1 170.705 31.1C178.005 31.1 184.005 34.3 188.105 39.7V14.1ZM174.905 72.9C182.605 72.9 188.105 66.8 188.105 58.1C188.105 49.5 182.605 43.4 174.905 43.4C166.805 43.4 161.105 49.5 161.105 58.1C161.105 66.8 166.805 72.9 174.905 72.9Z" fill="white"/>
<path d="M210.2 40C205.9 40 200.7 41.3 197.2 43.2L200.3 53.2C202.8 51.8 205.4 50.9 207.1 50.9C209.9 50.9 212.1 51.8 213.2 53.7L215 57.5L193.5 109.7H208.6L222.2 73.4L235.1 109.7H250L228.8 55.4C224.9 45.3 218.3 40 210.2 40Z" fill="white"/>
</svg>
