<svg width="699" height="359" viewBox="0 0 699 359" fill="none" xmlns="http://www.w3.org/2000/svg">
<path d="M0.12 15L3.63 4.05H8.1L11.73 15H8.85L6.03 6L6.825 6.3H4.845L5.655 6L2.91 15H0.12ZM2.985 12.465L3.825 10.185H7.98L8.82 12.465H2.985ZM22.9806 15.27C22.3006 15.27 21.7056 15.13 21.1956 14.85C20.6956 14.57 20.3006 14.16 20.0106 13.62C19.7306 13.08 19.5806 12.42 19.5606 11.64H19.8006V15H17.6406V4.05H20.3706V9.69L19.7706 10.29C19.8006 9.48 19.9556 8.79 20.2356 8.22C20.5156 7.65 20.9006 7.22 21.3906 6.93C21.8906 6.63 22.4656 6.48 23.1156 6.48C23.6756 6.48 24.1806 6.585 24.6306 6.795C25.0806 6.995 25.4606 7.285 25.7706 7.665C26.0906 8.035 26.3356 8.475 26.5056 8.985C26.6756 9.495 26.7606 10.055 26.7606 10.665V11.025C26.7606 11.635 26.6756 12.2 26.5056 12.72C26.3356 13.23 26.0856 13.68 25.7556 14.07C25.4256 14.45 25.0256 14.745 24.5556 14.955C24.0956 15.165 23.5706 15.27 22.9806 15.27ZM22.2006 13.02C22.5606 13.02 22.8756 12.93 23.1456 12.75C23.4256 12.56 23.6406 12.3 23.7906 11.97C23.9506 11.64 24.0306 11.265 24.0306 10.845C24.0306 10.415 23.9506 10.045 23.7906 9.735C23.6406 9.415 23.4306 9.17 23.1606 9C22.8906 8.82 22.5706 8.73 22.2006 8.73C21.8706 8.73 21.5606 8.805 21.2706 8.955C20.9906 9.105 20.7606 9.325 20.5806 9.615C20.4006 9.905 20.3106 10.255 20.3106 10.665V11.175C20.3106 11.565 20.4056 11.9 20.5956 12.18C20.7856 12.45 21.0256 12.66 21.3156 12.81C21.6056 12.95 21.9006 13.02 22.2006 13.02ZM37.1857 15.3C36.4557 15.3 35.8057 15.19 35.2357 14.97C34.6657 14.75 34.1807 14.445 33.7807 14.055C33.3907 13.665 33.0907 13.215 32.8807 12.705C32.6807 12.195 32.5807 11.65 32.5807 11.07V10.71C32.5807 10.11 32.6857 9.55 32.8957 9.03C33.1157 8.51 33.4257 8.055 33.8257 7.665C34.2257 7.275 34.7107 6.97 35.2807 6.75C35.8507 6.53 36.4857 6.42 37.1857 6.42C37.8957 6.42 38.5307 6.53 39.0907 6.75C39.6607 6.97 40.1457 7.275 40.5457 7.665C40.9457 8.055 41.2507 8.51 41.4607 9.03C41.6807 9.55 41.7907 10.11 41.7907 10.71V11.07C41.7907 11.65 41.6857 12.195 41.4757 12.705C41.2757 13.215 40.9757 13.665 40.5757 14.055C40.1857 14.445 39.7057 14.75 39.1357 14.97C38.5657 15.19 37.9157 15.3 37.1857 15.3ZM37.1857 13.02C37.6057 13.02 37.9507 12.93 38.2207 12.75C38.5007 12.57 38.7107 12.32 38.8507 12C38.9907 11.67 39.0607 11.3 39.0607 10.89C39.0607 10.46 38.9857 10.085 38.8357 9.765C38.6957 9.435 38.4857 9.175 38.2057 8.985C37.9257 8.795 37.5857 8.7 37.1857 8.7C36.7857 8.7 36.4457 8.795 36.1657 8.985C35.8857 9.175 35.6707 9.435 35.5207 9.765C35.3807 10.085 35.3107 10.46 35.3107 10.89C35.3107 11.3 35.3807 11.67 35.5207 12C35.6607 12.32 35.8707 12.57 36.1507 12.75C36.4307 12.93 36.7757 13.02 37.1857 13.02ZM50.8603 15.27C49.9203 15.27 49.1903 14.965 48.6703 14.355C48.1603 13.735 47.9053 12.79 47.9053 11.52V6.72H50.6353V11.595C50.6353 11.965 50.7453 12.265 50.9653 12.495C51.1853 12.725 51.4803 12.84 51.8503 12.84C52.2203 12.84 52.5203 12.725 52.7503 12.495C52.9803 12.265 53.0953 11.955 53.0953 11.565V6.72H55.8253V15H53.6653V11.52H53.8153C53.8153 12.37 53.7053 13.075 53.4853 13.635C53.2753 14.185 52.9603 14.595 52.5403 14.865C52.1203 15.135 51.6003 15.27 50.9803 15.27H50.8603ZM66.5862 15.12C65.6862 15.12 64.9662 15.01 64.4262 14.79C63.8962 14.57 63.5112 14.205 63.2712 13.695C63.0312 13.185 62.9112 12.495 62.9112 11.625L62.9262 4.56H65.4462L65.4312 11.7C65.4312 12.07 65.5262 12.355 65.7162 12.555C65.9162 12.745 66.2012 12.84 66.5712 12.84H67.7112V15.12H66.5862ZM61.7112 8.7V6.72H67.7112V8.7H61.7112Z" fill="#23ABE6"/>
<path d="M634.9 167H632.11V155.96H636.655C639.505 155.96 641.26 157.25 641.26 159.71V159.95C641.26 161.54 640.525 162.605 639.235 163.175L641.92 167H638.71L636.49 163.64H634.9V167ZM636.82 158.3H634.9V161.495H636.82C637.795 161.495 638.44 160.88 638.44 159.905C638.44 158.93 637.795 158.3 636.82 158.3ZM651.632 167.3C648.842 167.3 647.267 165.155 647.267 163.01V162.71C647.267 160.475 648.857 158.42 651.542 158.42C654.197 158.42 655.727 160.445 655.727 162.74V163.61H649.847C650.027 164.555 650.597 165.11 651.632 165.11C652.382 165.11 652.892 164.84 653.087 164.39H655.577C655.217 166.085 653.747 167.3 651.632 167.3ZM651.542 160.61C650.642 160.61 650.042 161.12 649.847 162.14H653.162C652.997 161.15 652.457 160.61 651.542 160.61ZM664.351 167.21C662.596 167.21 661.366 166.235 661.366 164.57C661.366 162.71 662.971 161.945 665.221 161.945H666.526C666.511 161.195 666.181 160.85 665.401 160.85C664.816 160.85 663.271 160.91 662.266 160.97V158.69C662.986 158.63 664.231 158.57 665.131 158.57C667.681 158.57 669.136 159.68 669.136 161.975V167H666.976V165.47C666.601 166.595 665.731 167.21 664.351 167.21ZM665.221 165.38C665.926 165.38 666.466 165.05 666.526 163.94V163.355H665.221C664.486 163.355 664.066 163.76 664.066 164.375C664.066 164.975 664.471 165.38 665.221 165.38ZM679.165 167.27C676.855 167.27 675.28 165.5 675.28 163.085V162.725C675.28 160.31 676.75 158.48 679.075 158.48C680.245 158.48 681.13 158.945 681.67 159.8V156.05H684.4V167H682.24V165.245C681.745 166.52 680.665 167.27 679.165 167.27ZM679.9 165.02C680.89 165.02 681.73 164.33 681.73 163.085V162.575C681.73 161.39 680.845 160.73 679.9 160.73C678.805 160.73 678.01 161.615 678.01 162.905C678.01 164.195 678.805 165.02 679.9 165.02ZM692.845 170.3H691.24V168.02H693.145C693.835 168.02 694.18 167.795 694.345 167.075L694.405 166.82H692.605L690.19 158.72H692.92L694.6 164.72H694.87L696.205 158.72H698.785L696.61 167.6C696.115 169.64 695.215 170.3 692.845 170.3Z" fill="#23ABE6"/>
<path d="M74.01 336.3C70.935 336.3 69.33 334.755 69.33 332.595H72.03C72.03 333.39 72.66 333.99 74.01 333.99C75.165 333.99 75.855 333.525 75.855 332.775C75.855 332.145 75.36 331.8 74.085 331.695L73.38 331.635C71.115 331.44 69.675 330.165 69.675 328.14C69.675 325.995 71.265 324.72 73.755 324.72C76.44 324.72 77.97 326.175 77.97 328.335H75.27C75.27 327.615 74.715 327.03 73.755 327.03C72.84 327.03 72.375 327.51 72.375 328.14C72.375 328.695 72.705 329.145 73.65 329.22L74.355 329.28C76.8 329.49 78.555 330.66 78.555 332.775C78.555 334.92 76.845 336.3 74.01 336.3ZM88.5627 336.3C85.7727 336.3 84.1977 334.155 84.1977 332.01V331.71C84.1977 329.475 85.7877 327.42 88.4727 327.42C91.1277 327.42 92.6577 329.445 92.6577 331.74V332.61H86.7777C86.9577 333.555 87.5277 334.11 88.5627 334.11C89.3127 334.11 89.8227 333.84 90.0177 333.39H92.5077C92.1477 335.085 90.6777 336.3 88.5627 336.3ZM88.4727 329.61C87.5727 329.61 86.9727 330.12 86.7777 331.14H90.0927C89.9277 330.15 89.3877 329.61 88.4727 329.61ZM101.282 336.21C99.5266 336.21 98.2966 335.235 98.2966 333.57C98.2966 331.71 99.9016 330.945 102.152 330.945H103.457C103.442 330.195 103.112 329.85 102.332 329.85C101.747 329.85 100.202 329.91 99.1966 329.97V327.69C99.9166 327.63 101.162 327.57 102.062 327.57C104.612 327.57 106.067 328.68 106.067 330.975V336H103.907V334.47C103.532 335.595 102.662 336.21 101.282 336.21ZM102.152 334.38C102.857 334.38 103.397 334.05 103.457 332.94V332.355H102.152C101.417 332.355 100.997 332.76 100.997 333.375C100.997 333.975 101.402 334.38 102.152 334.38ZM117.761 336.12H116.636C113.936 336.12 112.961 335.235 112.961 332.625V329.7H111.761V327.72H112.976V325.56H115.496V327.72H117.761V329.7H115.481V332.7C115.481 333.435 115.886 333.84 116.621 333.84H117.761V336.12Z" fill="#23ABE6"/>
<path d="M384.405 355.3C380.28 355.3 378.57 352.195 378.57 349.66V349.33C378.57 346.6 380.415 343.72 384.165 343.72C387.18 343.72 389.28 345.52 389.535 348.085H386.745C386.565 347.095 385.575 346.33 384.165 346.33C382.365 346.33 381.39 347.665 381.39 349.51C381.39 351.37 382.425 352.75 384.405 352.75C385.455 352.75 386.295 352.345 386.745 351.7V351.13H384.105V349.18H390.195V351.13H389.295V352.84C388.38 354.415 386.625 355.3 384.405 355.3ZM400.41 355.3C397.485 355.3 395.805 353.38 395.805 351.07V350.71C395.805 348.295 397.59 346.42 400.41 346.42C403.23 346.42 405.015 348.295 405.015 350.71V351.07C405.015 353.38 403.335 355.3 400.41 355.3ZM400.41 353.02C401.655 353.02 402.285 352.135 402.285 350.89C402.285 349.615 401.61 348.7 400.41 348.7C399.21 348.7 398.535 349.615 398.535 350.89C398.535 352.135 399.165 353.02 400.41 353.02Z" fill="#23ABE6"/>
</svg>
