<svg width="36" height="9" viewBox="0 0 36 9" fill="none" xmlns="http://www.w3.org/2000/svg">
<rect x="5" width="31" height="9" rx="2" fill="#0D1F78" fill-opacity="0.2"/>
<path d="M12.4061 3.122H9.73905V4.165H12.1541V5.096H9.73905V7H8.70305V2.191H12.4061V3.122ZM14.7286 3.297C15.6736 3.297 16.3176 3.892 16.3176 4.837V7H15.3306V6.636C15.0716 6.93 14.6586 7.084 14.2666 7.084C13.4966 7.084 12.9016 6.622 12.9016 5.929C12.9016 5.215 13.5666 4.725 14.4066 4.725C14.7006 4.725 15.0226 4.788 15.3306 4.907V4.837C15.3306 4.452 15.0926 4.116 14.4976 4.116C14.1616 4.116 13.8466 4.228 13.5596 4.375L13.2166 3.696C13.7276 3.437 14.2246 3.297 14.7286 3.297ZM14.4976 6.377C14.8896 6.377 15.2606 6.195 15.3306 5.859V5.523C15.0996 5.439 14.8336 5.39 14.5536 5.39C14.1826 5.39 13.8886 5.607 13.8886 5.901C13.8886 6.195 14.1476 6.377 14.4976 6.377ZM18.95 7.084C17.879 7.084 16.976 6.216 16.976 5.187C16.976 4.158 17.886 3.297 18.957 3.297C19.545 3.297 20.028 3.535 20.378 3.913L19.699 4.494C19.517 4.291 19.23 4.158 18.95 4.158C18.418 4.158 17.97 4.627 17.97 5.18C17.97 5.747 18.418 6.223 18.957 6.223C19.237 6.223 19.531 6.083 19.72 5.873L20.399 6.447C20.042 6.839 19.552 7.084 18.95 7.084ZM23.4149 3.381H24.4369V7H23.4149V6.545C23.1979 6.874 22.7919 7.084 22.3229 7.084C21.5389 7.084 20.9789 6.503 20.9789 5.684V3.381H21.9659V5.467C21.9659 5.915 22.2459 6.223 22.6519 6.223C23.0789 6.223 23.4079 5.915 23.4079 5.523L23.4149 5.544V3.381ZM25.3137 7V2.107H26.3357V7H25.3137ZM29.1318 6.104L29.3768 6.769C29.1668 6.958 28.8378 7.084 28.5438 7.084C27.9068 7.084 27.4588 6.629 27.4588 5.978V4.207H26.9618V3.381H27.4588V2.387H28.4388V3.381H29.2228V4.207H28.4388V5.817C28.4388 6.055 28.5928 6.223 28.7818 6.223C28.9218 6.223 29.0618 6.174 29.1318 6.104ZM30.8428 8.26C30.5418 8.26 30.1778 8.169 29.9328 8.036L30.1498 7.336C30.3248 7.434 30.5068 7.497 30.6258 7.497C30.8218 7.497 30.9758 7.434 31.0528 7.301L31.1788 7.035L29.6738 3.381H30.7308L31.6828 5.922L32.5858 3.381H33.6288L32.1448 7.182C31.8718 7.889 31.4098 8.26 30.8428 8.26Z" fill="#000068"/>
<circle cx="2" cy="5" r="2" fill="#0D1F78"/>
</svg>
